<svg width="292" height="59" viewBox="0 0 292 59" fill="none" xmlns="http://www.w3.org/2000/svg">
<g clip-path="url(#clip0_21_29518)">
<path d="M241.13 0H230.924V37.4637C230.924 41.1196 229.958 43.9848 228.054 45.9782C226.157 47.965 223.423 48.9718 219.942 48.9718C216.46 48.9718 213.774 47.965 211.884 45.9782C209.994 43.9848 209.035 41.1196 209.035 37.4637V13.9948L198.828 34.2945V37.1867C198.828 41.7413 199.658 45.7012 201.303 48.9516C202.949 52.2154 205.39 54.736 208.552 56.4389C211.7 58.135 215.535 59 219.942 59C224.348 59 228.217 58.135 231.366 56.4389C234.528 54.736 236.975 52.2154 238.635 48.9516C240.287 45.7012 241.13 41.7413 241.13 37.1867V0Z" fill="#FFC200"/>
<path d="M269.934 0H262.523L240.457 58.4053H251.432L255.267 47.4379H277.197L281.025 58.4053H292L269.934 0ZM258.667 37.6935L266.228 16.0559L273.79 37.6935H258.667Z" fill="#FFC200"/>
<path d="M42.302 0V37.1867C42.302 41.7413 41.4588 45.7012 39.8064 48.9516C38.1473 52.2154 35.6993 54.7292 32.5374 56.4389C29.389 58.135 25.5403 59 21.1068 59C16.6733 59 12.8722 58.135 9.72381 56.4389C6.56187 54.7292 4.12072 52.2087 2.47515 48.9516C0.829584 45.7012 0 41.7413 0 37.1867V2.23674C0 1.48666 0.00679987 0.743328 0.0203996 0H10.1998C10.2066 0.10812 10.2066 0.216241 10.2066 0.324361V37.4637C10.2066 41.1196 11.1654 43.9848 13.0557 45.9782C14.9393 47.965 17.6525 48.9718 21.1068 48.9718C24.5611 48.9718 27.3287 47.965 29.2258 45.9782C31.1298 43.9848 32.0954 41.1196 32.0954 37.4637V0H42.302Z" fill="#0D63C9"/>
<path d="M87.6775 41.8224L64.1364 0H53.2226V58.3648H63.1504V17.1844L86.6167 58.3648H97.6053V0H87.6775V41.8224Z" fill="#0D63C9"/>
<path d="M120.133 0H109.729V58.3986H120.133V0Z" fill="#0D63C9"/>
<path d="M198.978 0L187.275 25.0164L175.573 0H127.464V9.75112H143.613V58.4053H153.779V9.75112H169.439L182.196 35.2743V58.4053H192.362V35.2743L209.987 0H198.978Z" fill="#0D63C9"/>
</g>
<defs>
<clipPath id="clip0_21_29518">
<rect width="292" height="59" fill="white"/>
</clipPath>
</defs>
</svg>
