<svg width="185" height="84" viewBox="0 0 185 84" fill="none" xmlns="http://www.w3.org/2000/svg">
<g clip-path="url(#clip0_2_16)">
<path d="M79.6826 27.1047C79.2886 26.8941 78.8226 26.7873 78.2819 26.7873H76.3147V24.7765H80.2923V23.4234H74.9083V32.0179H78.2848C78.8226 32.0179 79.2886 31.914 79.6855 31.7034C80.0795 31.4957 80.3844 31.1927 80.6001 30.8004C80.8129 30.4051 80.9222 29.9435 80.9222 29.4127C80.9222 28.8818 80.8158 28.4058 80.6001 28.0106C80.3872 27.6153 80.0824 27.3153 79.6855 27.1047H79.6826ZM79.3288 30.0791C79.2368 30.2695 79.1045 30.4138 78.9348 30.5148C78.7651 30.6157 78.5609 30.6648 78.3251 30.6648H76.3147V28.1404H78.3251C78.5609 28.1404 78.7651 28.1894 78.9348 28.2904C79.1045 28.3914 79.2368 28.5356 79.3288 28.7289C79.4209 28.9194 79.4669 29.1473 79.4669 29.4127C79.4669 29.6781 79.4209 29.8916 79.3288 30.0791Z" fill="white"/>
<path d="M86.0215 25.8843H82.9096V29.4242C82.9096 29.8368 82.8291 30.157 82.6709 30.3821C82.5127 30.6071 82.2883 30.7196 82.0007 30.7196V32.0727H82.1187C82.5702 32.0727 82.9585 31.9746 83.2806 31.7813C83.6027 31.5851 83.8472 31.3024 84.014 30.9331C84.1808 30.5638 84.2642 30.1166 84.2642 29.5916V27.2403H86.0187V32.0207H87.428V25.8872H86.0187L86.0215 25.8843Z" fill="white"/>
<path d="M92.7143 26.0632C92.3461 25.8843 91.9003 25.7949 91.3826 25.7949C90.9081 25.7949 90.4766 25.8728 90.0855 26.0286C89.6972 26.1844 89.3837 26.4007 89.1421 26.6806L90.0798 27.4711C90.2609 27.3384 90.4651 27.2316 90.6924 27.1566C90.9196 27.0816 91.1525 27.0441 91.3884 27.0441C91.7565 27.0441 92.0441 27.1393 92.2455 27.3268C92.4468 27.5172 92.5474 27.7827 92.5474 28.126V28.3856H90.9627C90.2552 28.3856 89.726 28.5385 89.3722 28.8415C89.0185 29.1444 88.843 29.6002 88.843 30.2061C88.843 30.8437 89.0185 31.3197 89.3665 31.6341C89.7174 31.9486 90.2408 32.1044 90.9455 32.1044C91.2244 32.1044 91.4804 32.0727 91.7163 32.0063C91.9521 31.94 92.1534 31.8448 92.3202 31.7149C92.4094 31.6457 92.4871 31.5649 92.5474 31.4755V32.0179H93.8503V28.0769C93.8503 27.5951 93.7525 27.1855 93.5598 26.845C93.3643 26.5046 93.0824 26.2449 92.7143 26.0661V26.0632ZM92.2224 30.8177C92.0039 30.9158 91.6702 30.9648 91.2244 30.9648C90.8592 30.9648 90.5859 30.9042 90.4047 30.7773C90.2235 30.6532 90.1344 30.4628 90.1344 30.2061C90.1344 29.9493 90.2034 29.782 90.3443 29.6637C90.4824 29.5454 90.6924 29.4877 90.9713 29.4877H92.5503V30.3561C92.5503 30.5638 92.441 30.7196 92.2224 30.8177Z" fill="white"/>
<path d="M96.0879 25.8843H95.5012V32.0179H96.9076V27.2374H99.5364V25.8843H96.9076H96.0879Z" fill="white"/>
<path d="M103.92 26.1065C103.531 25.8987 103.068 25.7949 102.528 25.7949C101.987 25.7949 101.521 25.8987 101.136 26.1065C100.747 26.3142 100.454 26.6142 100.253 27.0095C100.051 27.4047 99.9506 27.8807 99.9506 28.4376V29.4358C99.9506 29.9983 100.051 30.4801 100.253 30.8812C100.454 31.2822 100.75 31.5851 101.136 31.7928C101.521 32.0005 101.987 32.1073 102.528 32.1073C103.068 32.1073 103.534 32.0034 103.92 31.7928C104.305 31.5851 104.601 31.2822 104.803 30.8869C105.004 30.4917 105.107 30.0128 105.107 29.4531V28.4376C105.107 27.8807 105.007 27.4076 104.803 27.0095C104.601 26.6142 104.305 26.3113 103.92 26.1065ZM103.698 29.4531C103.698 29.8656 103.595 30.1859 103.39 30.4138C103.186 30.6417 102.899 30.7542 102.525 30.7542C102.151 30.7542 101.857 30.6417 101.656 30.4138C101.455 30.1888 101.354 29.8656 101.354 29.4531V28.4376C101.354 28.0279 101.458 27.7105 101.662 27.4855C101.866 27.2605 102.154 27.148 102.528 27.148C102.901 27.148 103.189 27.2605 103.393 27.4855C103.597 27.7105 103.701 28.0279 103.701 28.4376V29.4531H103.698Z" fill="white"/>
<path d="M111.61 30.7254V25.8843H107.167V28.928C107.167 29.3665 107.147 29.7098 107.106 29.9608C107.066 30.2118 106.991 30.4023 106.879 30.5321C106.767 30.659 106.597 30.7254 106.37 30.7254H106.01V33.5613H107.331V32.0179H111.242V33.5613H112.562V30.7254H111.607H111.61ZM108.222 30.7254C108.452 30.3849 108.57 29.9205 108.57 29.3319V27.1797H110.201V30.7254H108.222Z" fill="white"/>
<path d="M115.246 25.8843H113.842V32.0179H115.246V25.8843Z" fill="white"/>
<path d="M115.246 23.4263H113.842V24.8399H115.246V23.4263Z" fill="white"/>
<path d="M119.373 24.8082H119.479C120.092 24.8082 120.552 24.6207 120.86 24.2485C121.168 23.8764 121.323 23.3167 121.323 22.5723H120.181C120.181 22.9676 120.124 23.2618 120.009 23.4551C119.894 23.6513 119.718 23.7465 119.482 23.7465H119.376C119.14 23.7465 118.965 23.6484 118.849 23.4551C118.734 23.259 118.677 22.9647 118.677 22.5723H117.535C117.535 23.3167 117.69 23.8764 117.998 24.2485C118.306 24.6207 118.766 24.8082 119.379 24.8082H119.373Z" fill="white"/>
<path d="M118.22 29.8224V25.8843H116.851V32.0121H118.073L120.636 28.1693V32.0121H122.002V25.8843H120.794L118.22 29.8224Z" fill="white"/>
<path d="M127.486 28.3597H125.117V25.8843H123.707V32.0179H125.117V29.6493H127.486V32.0179H128.893V25.8843H127.486V28.3597Z" fill="white"/>
<path d="M131.967 29.8224V25.8843H130.601V32.0121H131.821L134.383 28.1693V32.0121H135.749V25.8843H134.542L131.967 29.8224Z" fill="white"/>
<path d="M139.98 24.8082H140.087C140.699 24.8082 141.159 24.6207 141.467 24.2485C141.775 23.8764 141.93 23.3167 141.93 22.5723H140.788C140.788 22.9676 140.731 23.2618 140.616 23.4551C140.501 23.6513 140.325 23.7465 140.09 23.7465H139.983C139.747 23.7465 139.572 23.6484 139.457 23.4551C139.342 23.259 139.284 22.9647 139.284 22.5723H138.142C138.142 23.3167 138.298 23.8764 138.605 24.2485C138.913 24.6207 139.373 24.8082 139.986 24.8082H139.98Z" fill="white"/>
<path d="M138.824 29.8224V25.8843H137.458V32.0121H138.677L141.24 28.1693V32.0121H142.606V25.8843H141.398L138.824 29.8224Z" fill="white"/>
<path d="M152.79 25.8843C152.304 25.8843 151.925 26.0834 151.657 26.4844C151.649 26.4988 151.64 26.5133 151.631 26.5277V24.1043H150.228V26.5161C150.228 26.5161 150.213 26.4931 150.208 26.4815C149.937 26.0805 149.558 25.8814 149.069 25.8814C148.511 25.8814 148.079 26.0718 147.774 26.4498C147.47 26.8277 147.317 27.3614 147.317 28.051V29.8368C147.317 30.5263 147.47 31.0629 147.774 31.4437C148.079 31.8246 148.511 32.0179 149.069 32.0179C149.561 32.0179 149.94 31.8246 150.208 31.4409C150.216 31.4293 150.222 31.4178 150.228 31.4091V33.7979H151.631V31.4005C151.631 31.4005 151.649 31.4293 151.657 31.4437C151.928 31.8274 152.304 32.0207 152.79 32.0207C153.348 32.0207 153.78 31.8303 154.088 31.4466C154.395 31.0658 154.548 30.5292 154.548 29.8397V28.0539C154.548 27.3643 154.395 26.8306 154.088 26.4527C153.78 26.0747 153.348 25.8843 152.79 25.8843ZM150.021 30.3965C149.88 30.5754 149.681 30.6648 149.425 30.6648C149.201 30.6648 149.028 30.5754 148.908 30.3965C148.787 30.2176 148.726 29.9608 148.726 29.632V28.2616C148.726 27.9356 148.787 27.6817 148.908 27.5057C149.028 27.3297 149.201 27.2403 149.425 27.2403C149.681 27.2403 149.88 27.3297 150.021 27.5057C150.139 27.6557 150.208 27.8577 150.228 28.1144V29.7849C150.208 30.0445 150.142 30.2493 150.021 30.3994V30.3965ZM153.138 29.632C153.138 29.9637 153.078 30.2176 152.951 30.3965C152.828 30.5754 152.655 30.6648 152.431 30.6648C152.175 30.6648 151.979 30.5754 151.838 30.3965C151.7 30.2176 151.628 29.9608 151.628 29.632V28.2616C151.628 27.9356 151.698 27.6817 151.838 27.5057C151.976 27.3297 152.175 27.2403 152.431 27.2403C152.655 27.2403 152.828 27.3297 152.951 27.5057C153.075 27.6817 153.138 27.9356 153.138 28.2616V29.632Z" fill="white"/>
<path d="M159.874 26.1065C159.486 25.8987 159.023 25.7949 158.482 25.7949C157.942 25.7949 157.476 25.8987 157.09 26.1065C156.702 26.3142 156.409 26.6142 156.207 27.0095C156.006 27.4047 155.902 27.8807 155.902 28.4376V29.4358C155.902 29.9983 156.003 30.4801 156.207 30.8812C156.409 31.2822 156.705 31.5851 157.09 31.7928C157.476 32.0005 157.942 32.1073 158.482 32.1073C159.023 32.1073 159.489 32.0034 159.874 31.7928C160.26 31.5851 160.556 31.2822 160.757 30.8869C160.959 30.4917 161.062 30.0128 161.062 29.4531V28.4376C161.062 27.8807 160.961 27.4076 160.757 27.0095C160.556 26.6142 160.26 26.3113 159.874 26.1065ZM159.653 29.4531C159.653 29.8656 159.549 30.1859 159.345 30.4138C159.141 30.6417 158.853 30.7542 158.479 30.7542C158.106 30.7542 157.812 30.6417 157.611 30.4138C157.409 30.1888 157.309 29.8656 157.309 29.4531V28.4376C157.309 28.0279 157.412 27.7105 157.617 27.4855C157.821 27.2605 158.108 27.148 158.482 27.148C158.856 27.148 159.144 27.2605 159.348 27.4855C159.552 27.7105 159.656 28.0279 159.656 28.4376V29.4531H159.653Z" fill="white"/>
<path d="M166.369 28.3597H163.999V25.8843H162.592V32.0179H163.999V29.6493H166.369V32.0179H167.778V25.8843H166.369V28.3597Z" fill="white"/>
<path d="M175.098 30.7254H174.75V25.8843H170.306V28.928C170.306 29.3665 170.286 29.7098 170.246 29.9608C170.205 30.2118 170.131 30.4023 170.018 30.5321C169.906 30.659 169.737 30.7254 169.509 30.7254H169.15V33.5613H170.47V32.0179H174.381V33.5613H175.702V30.7254H175.095H175.098ZM171.364 30.7254C171.594 30.3849 171.71 29.9205 171.71 29.3319V27.1797H173.343V30.7254H171.364Z" fill="white"/>
<path d="M51.4364 16.2253C55.903 16.2253 59.524 12.5931 59.524 8.11265C59.524 3.63223 55.903 0 51.4364 0C46.9698 0 43.3488 3.63223 43.3488 8.11265C43.3488 12.5931 46.9698 16.2253 51.4364 16.2253Z" fill="white"/>
<path d="M49.5669 18.2737C38.5629 12.9508 20.8806 17.9534 12.4823 33.9364C26.4487 19.7421 46.5786 23.5705 41.6863 50.7618C49.5928 47.7844 58.1176 41.449 58.1981 32.191C58.2499 26.2911 54.8647 20.8384 49.5669 18.2765V18.2737Z" fill="white"/>
<path d="M12.4823 43.0848C12.4823 47.5652 16.1034 51.1974 20.5699 51.1974C25.0365 51.1974 28.6576 47.5652 28.6576 43.0848C28.6576 38.6043 25.0365 34.9721 20.5699 34.9721C16.1034 34.9721 12.4823 38.6043 12.4823 43.0848Z" fill="white"/>
<path d="M31.0735 54.345C10.4834 57.631 -3.24711 37.1878 18.4503 23.4003C-18.9075 35.5289 10.5726 84 19.4138 84C30.5616 84 19.4454 62.2441 41.2895 56.7626C41.5282 60.6833 42.6757 61.1017 45.1521 61.1017C51.2437 61.1017 58.2326 53.1188 59.524 41.6596C54.7123 47.1959 45.7532 52.6745 31.0735 54.3421V54.345Z" fill="white"/>
<path d="M163.481 36.0684H159.164V52.0629C159.164 53.6237 158.756 54.847 157.95 55.698C157.148 56.5462 155.992 56.9761 154.519 56.9761C153.046 56.9761 151.91 56.5462 151.111 55.698C150.311 54.847 149.906 53.6237 149.906 52.0629V42.0433L145.589 50.7098V51.9446C145.589 53.8891 145.94 55.5797 146.636 56.9674C147.332 58.3609 148.364 59.437 149.702 60.164C151.033 60.8882 152.655 61.2574 154.519 61.2574C156.383 61.2574 158.019 60.8882 159.351 60.164C160.688 59.437 161.724 58.3609 162.425 56.9674C163.124 55.5797 163.481 53.8891 163.481 51.9446V36.0684Z" fill="white"/>
<path d="M175.664 36.0684H172.532L163.199 61.0007H167.841L169.46 56.3212H178.736L180.355 61.0007H184.997L175.664 36.0684ZM170.898 52.161L174.097 42.9232L177.295 52.161H170.898Z" fill="white"/>
<path d="M75.0665 52.06C75.0665 53.6208 74.6581 54.8441 73.8528 55.6952C73.0503 56.5433 71.8941 56.9732 70.4216 56.9732C68.949 56.9732 67.8129 56.5433 67.0134 55.6952C66.2138 54.8441 65.8083 53.6208 65.8083 52.06V36.204C65.8083 27.9587 62.3713 23.5157 59.4866 21.2395C56.3603 18.7728 53.0987 18.5102 53.0671 18.5074C61.3992 22.9647 61.5603 33.6969 61.5056 35.803C61.497 36.2098 61.4884 36.6137 61.4884 37.0205V51.9418C61.4884 53.8862 61.8392 55.5769 62.5353 56.9646C63.2313 58.358 64.2638 59.4341 65.6012 60.1612C66.9328 60.8853 68.555 61.2546 70.4187 61.2546C72.2824 61.2546 73.9189 60.8853 75.2505 60.1612C76.5879 59.4341 77.6233 58.358 78.3251 56.9646C79.024 55.5769 79.3806 53.8891 79.3806 51.9418V36.0655H75.0636V52.06H75.0665Z" fill="white"/>
<path d="M98.5758 53.9209L88.6187 36.0684H84.0054V60.9834H88.2046V43.405L98.1271 60.9834H102.775V36.0684H98.5758V53.9209Z" fill="white"/>
<path d="M112.303 36.0684H107.903V61.0007H112.303V36.0684Z" fill="white"/>
<path d="M145.655 36.0684L140.705 46.7458L135.755 36.0684H115.407V40.2286H122.235V61.0007H126.534V40.2286H133.158L138.554 51.1282V61.0007H142.854V51.1282L150.308 36.0684H145.655Z" fill="white"/>
</g>
<defs>
<clipPath id="clip0_2_16">
<rect width="185" height="84" fill="white"/>
</clipPath>
</defs>
</svg>
